<svg xmlns="http://www.w3.org/2000/svg" aria-hidden="true" style="position:absolute;width:0;height:0;overflow:hidden">
  <defs>
    <symbol id="icon-facebook" viewBox="0 0 32 32">
      <path stroke-linecap="round" stroke-linejoin="round" stroke-width="2" d="M24 2.7h-4c-1.8 0-3.5.7-4.7 2s-2 2.9-2 4.6v4h-4v5.4h4v10.6h5.4V18.7h4l1.3-5.4h-5.3v-4c0-.3.1-.7.4-1s.5-.3.9-.3h4V2.7z"/>
    </symbol>
    <symbol id="icon-instagram" viewBox="0 0 32 32">
      <path stroke-linecap="round" stroke-linejoin="round" stroke-width="2" d="M22.7 2.7H9.3c-3.6 0-6.6 3-6.6 6.6v13.4c0 3.6 3 6.6 6.6 6.6h13.4c3.6 0 6.6-3 6.6-6.6V9.3c0-3.6-3-6.6-6.6-6.6z"/>
      <path stroke-linecap="round" stroke-linejoin="round" stroke-width="2" d="M21.3 15.2a5.3 5.3 0 1 1-10.5 1.5 5.3 5.3 0 0 1 10.5-1.5zM23.3 8.7"/>
    </symbol>
    <symbol id="icon-twitter" viewBox="0 0 32 32">
      <path stroke-linecap="round" stroke-linejoin="round" stroke-width="2" d="M30.7 4c-1.3.9-2.7 1.6-4.2 2A6 6 0 0 0 16 10v1.4c-2.3 0-4.7-.5-6.8-1.5S4.7 6.3 3.3 4.4c0 0-4.6 13 7.4 18.3-2.8 1.8-6 2.8-9.4 2.6C13.3 32 28 25.3 28 10l-.1-1.1c1.4-1.3 2.3-3 2.8-4.9z"/>
    </symbol>
  </defs>
</svg>
